<svg width="25" height="25" viewBox="0 0 25 25" fill="none" xmlns="http://www.w3.org/2000/svg">
<g id="bxs:phone-call">
<path id="Vector" d="M20.5 11.499H22.5C22.5 6.369 18.627 2.5 13.49 2.5V4.5C17.552 4.5 20.5 7.443 20.5 11.499Z" fill="white"/>
<path id="Vector_2" d="M13.5 8.49999C15.603 8.49999 16.5 9.39699 16.5 11.5H18.5C18.5 8.27499 16.725 6.49999 13.5 6.49999V8.49999ZM16.922 13.943C16.7299 13.7683 16.4774 13.6752 16.2178 13.6832C15.9583 13.6912 15.712 13.7998 15.531 13.986L13.138 16.447C12.562 16.337 11.404 15.976 10.212 14.787C9.02004 13.594 8.65904 12.433 8.55204 11.861L11.011 9.46699C11.1975 9.28612 11.3062 9.03982 11.3142 8.7802C11.3222 8.52059 11.2289 8.26804 11.054 8.07599L7.35904 4.01299C7.18408 3.82035 6.94092 3.7035 6.68119 3.68725C6.42146 3.67101 6.16564 3.75665 5.96804 3.92599L3.79804 5.78699C3.62515 5.96051 3.52196 6.19145 3.50804 6.43599C3.49304 6.68599 3.20704 12.608 7.79904 17.202C11.805 21.207 16.823 21.5 18.205 21.5C18.407 21.5 18.531 21.494 18.564 21.492C18.8086 21.4783 19.0394 21.3747 19.212 21.201L21.072 19.03C21.2415 18.8325 21.3273 18.5768 21.3113 18.317C21.2952 18.0573 21.1785 17.8141 20.986 17.639L16.922 13.943Z" fill="white"/>
</g>
</svg>
