<svg width="25" height="25" viewBox="0 0 25 25" fill="none" xmlns="http://www.w3.org/2000/svg">
<g id="carbon:location-filled">
<path id="Vector" d="M12.5 2C10.3128 2.00258 8.21584 2.8726 6.66923 4.41922C5.12261 5.96584 4.25259 8.06276 4.25001 10.25C4.24739 12.0374 4.83124 13.7763 5.91201 15.2C5.91201 15.2 6.13701 15.4963 6.17376 15.539L12.5 23L18.8293 15.5353C18.8623 15.4955 19.088 15.2 19.088 15.2L19.0888 15.1978C20.169 13.7747 20.7526 12.0366 20.75 10.25C20.7474 8.06276 19.8774 5.96584 18.3308 4.41922C16.7842 2.8726 14.6873 2.00258 12.5 2ZM12.5 13.25C11.9067 13.25 11.3266 13.0741 10.8333 12.7444C10.34 12.4148 9.95543 11.9462 9.72837 11.3981C9.50131 10.8499 9.4419 10.2467 9.55765 9.66473C9.67341 9.08279 9.95913 8.54824 10.3787 8.12868C10.7982 7.70912 11.3328 7.4234 11.9147 7.30764C12.4967 7.19189 13.0999 7.2513 13.6481 7.47836C14.1962 7.70542 14.6648 8.08994 14.9944 8.58329C15.3241 9.07664 15.5 9.65666 15.5 10.25C15.499 11.0453 15.1826 11.8078 14.6202 12.3702C14.0578 12.9326 13.2954 13.249 12.5 13.25Z" fill="white"/>
</g>
</svg>
