<svg width="31" height="31" viewBox="0 0 31 31" fill="none" xmlns="http://www.w3.org/2000/svg">
<g id="Group 1000001750">
<circle id="Ellipse 796" cx="15.5" cy="15.5" r="15" fill="url(#paint0_linear_1_305)"/>
<path id="Vector" fill-rule="evenodd" clip-rule="evenodd" d="M12.908 7.545C13.7077 7.50818 13.9627 7.5 16 7.5C18.0373 7.5 18.2923 7.50886 19.0914 7.545C19.8905 7.58114 20.4359 7.70864 20.9132 7.89341C21.413 8.08227 21.8664 8.3775 22.2414 8.75932C22.6232 9.13364 22.9177 9.58636 23.1059 10.0868C23.2914 10.5641 23.4182 11.1095 23.455 11.9073C23.4918 12.7084 23.5 12.9634 23.5 15C23.5 17.0373 23.4911 17.2923 23.455 18.092C23.4189 18.8898 23.2914 19.4352 23.1059 19.9125C22.9177 20.413 22.6227 20.8665 22.2414 21.2414C21.8664 21.6232 21.413 21.9177 20.9132 22.1059C20.4359 22.2914 19.8905 22.4182 19.0927 22.455C18.2923 22.4918 18.0373 22.5 16 22.5C13.9627 22.5 13.7077 22.4911 12.908 22.455C12.1102 22.4189 11.5648 22.2914 11.0875 22.1059C10.587 21.9177 10.1335 21.6227 9.75864 21.2414C9.37708 20.8668 9.08181 20.4136 8.89341 19.9132C8.70864 19.4359 8.58182 18.8905 8.545 18.0927C8.50818 17.2916 8.5 17.0366 8.5 15C8.5 12.9627 8.50886 12.7077 8.545 11.9086C8.58114 11.1095 8.70864 10.5641 8.89341 10.0868C9.08208 9.58642 9.37758 9.13317 9.75932 8.75864C10.1337 8.37716 10.5867 8.08189 11.0868 7.89341C11.5641 7.70864 12.1095 7.58182 12.9073 7.545H12.908ZM19.0307 8.895C18.2398 8.85886 18.0025 8.85136 16 8.85136C13.9975 8.85136 13.7602 8.85886 12.9693 8.895C12.2377 8.92841 11.8409 9.05045 11.5764 9.15341C11.2266 9.28977 10.9764 9.45136 10.7139 9.71386C10.465 9.95594 10.2735 10.2506 10.1534 10.5764C10.0505 10.8409 9.92841 11.2377 9.895 11.9693C9.85886 12.7602 9.85136 12.9975 9.85136 15C9.85136 17.0025 9.85886 17.2398 9.895 18.0307C9.92841 18.7623 10.0505 19.1591 10.1534 19.4236C10.2734 19.7489 10.465 20.0441 10.7139 20.2861C10.9559 20.535 11.2511 20.7266 11.5764 20.8466C11.8409 20.9495 12.2377 21.0716 12.9693 21.105C13.7602 21.1411 13.9968 21.1486 16 21.1486C18.0032 21.1486 18.2398 21.1411 19.0307 21.105C19.7623 21.0716 20.1591 20.9495 20.4236 20.8466C20.7734 20.7102 21.0236 20.5486 21.2861 20.2861C21.535 20.0441 21.7266 19.7489 21.8466 19.4236C21.9495 19.1591 22.0716 18.7623 22.105 18.0307C22.1411 17.2398 22.1486 17.0025 22.1486 15C22.1486 12.9975 22.1411 12.7602 22.105 11.9693C22.0716 11.2377 21.9495 10.8409 21.8466 10.5764C21.7102 10.2266 21.5486 9.97636 21.2861 9.71386C21.044 9.46505 20.7493 9.27355 20.4236 9.15341C20.1591 9.05045 19.7623 8.92841 19.0307 8.895ZM15.042 17.312C15.577 17.5347 16.1728 17.5648 16.7275 17.3971C17.2821 17.2294 17.7614 16.8743 18.0834 16.3924C18.4053 15.9106 18.55 15.332 18.4928 14.7553C18.4355 14.1786 18.1798 13.6398 17.7693 13.2307C17.5077 12.9692 17.1913 12.769 16.843 12.6444C16.4946 12.5199 16.123 12.4741 15.7549 12.5104C15.3867 12.5467 15.0312 12.6642 14.714 12.8544C14.3967 13.0446 14.1255 13.3028 13.92 13.6104C13.7145 13.9179 13.5797 14.2672 13.5254 14.6332C13.471 14.9991 13.4985 15.3725 13.6058 15.7265C13.7131 16.0805 13.8976 16.4063 14.1459 16.6805C14.3943 16.9547 14.7003 17.1704 15.042 17.312ZM13.2741 12.2741C13.6321 11.9161 14.057 11.6322 14.5247 11.4384C14.9925 11.2447 15.4938 11.145 16 11.145C16.5062 11.145 17.0075 11.2447 17.4753 11.4384C17.943 11.6322 18.3679 11.9161 18.7259 12.2741C19.0839 12.6321 19.3678 13.057 19.5616 13.5247C19.7553 13.9925 19.855 14.4938 19.855 15C19.855 15.5062 19.7553 16.0075 19.5616 16.4753C19.3678 16.943 19.0839 17.3679 18.7259 17.7259C18.003 18.4489 17.0224 18.855 16 18.855C14.9776 18.855 13.997 18.4489 13.2741 17.7259C12.5511 17.003 12.145 16.0224 12.145 15C12.145 13.9776 12.5511 12.997 13.2741 12.2741ZM20.71 11.7191C20.7987 11.6354 20.8697 11.5348 20.9188 11.4232C20.968 11.3115 20.9942 11.1912 20.996 11.0693C20.9977 10.9473 20.975 10.8263 20.9292 10.7133C20.8833 10.6003 20.8153 10.4976 20.7291 10.4114C20.6428 10.3252 20.5402 10.2571 20.4272 10.2113C20.3142 10.1654 20.1931 10.1427 20.0712 10.1445C19.9492 10.1463 19.8289 10.1725 19.7173 10.2216C19.6057 10.2707 19.505 10.3417 19.4214 10.4305C19.2586 10.603 19.1695 10.8321 19.173 11.0693C19.1764 11.3064 19.2722 11.5329 19.4399 11.7006C19.6076 11.8683 19.834 11.964 20.0712 11.9675C20.3083 11.9709 20.5375 11.8818 20.71 11.7191Z" fill="white"/>
</g>
<defs>
<linearGradient id="paint0_linear_1_305" x1="15.5" y1="13" x2="6.5" y2="27" gradientUnits="userSpaceOnUse">
<stop stop-color="#A849D3"/>
<stop offset="1" stop-color="#D9B12F"/>
</linearGradient>
</defs>
</svg>
