<svg width="31" height="31" viewBox="0 0 31 31" fill="none" xmlns="http://www.w3.org/2000/svg">
<g id="Group 1000001749">
<circle id="Ellipse 795" cx="15.5" cy="15.5" r="15" fill="#47A3E7"/>
<path id="Vector" d="M23.5 10.9255C22.9484 11.1598 22.3481 11.3284 21.7298 11.3941C22.3717 11.0185 22.8525 10.4252 23.0818 9.72545C22.4794 10.0783 21.8195 10.3258 21.1313 10.4568C20.8437 10.154 20.4958 9.9128 20.1094 9.74819C19.7229 9.58357 19.3062 9.49909 18.8852 9.50001C17.1816 9.50001 15.8116 10.8598 15.8116 12.5284C15.8116 12.7627 15.8405 12.997 15.8873 13.2225C13.3366 13.0911 11.0616 11.8911 9.54915 10.0539C9.27357 10.5174 9.12916 11.0451 9.13093 11.5823C9.13093 12.6331 9.67354 13.5598 10.501 14.1047C10.0133 14.0858 9.53715 13.9538 9.1111 13.7195V13.7568C9.1111 15.2284 10.1675 16.4479 11.5754 16.7284C11.311 16.796 11.0391 16.8306 10.766 16.8314C10.5659 16.8314 10.3766 16.8118 10.1855 16.7852C10.5749 17.9852 11.7087 18.8568 13.0589 18.8852C12.0026 19.7 10.6794 20.1793 9.2427 20.1793C8.98492 20.1793 8.74697 20.1704 8.5 20.142C9.86282 21.003 11.4798 21.5 13.2212 21.5C18.8744 21.5 21.9677 16.8882 21.9677 12.8852C21.9677 12.7539 21.9677 12.6225 21.9587 12.4911C22.5572 12.0598 23.0818 11.5254 23.5 10.9255Z" fill="white"/>
</g>
</svg>
