<svg width="102" height="40" viewBox="0 0 102 40" fill="none" xmlns="http://www.w3.org/2000/svg">
<path fill-rule="evenodd" clip-rule="evenodd" d="M80.5147 32.6753C55.9802 23.4913 35.6466 33.4805 28.7263 39.4176C27.7198 40.2812 26.1981 40.1718 25.3276 39.1733C24.4571 38.1748 24.5673 36.6654 25.5739 35.8018C33.5126 28.991 55.6678 18.2648 82.2161 28.2027C83.4612 28.6688 84.0897 30.0478 83.6198 31.2829C83.15 32.518 81.7598 33.1414 80.5147 32.6753Z" fill="#E9B22C"/>
<path d="M100.376 6.18802C100.893 6.18802 101.253 6.25494 101.456 6.3888C101.658 6.52265 101.759 6.74574 101.759 7.05806C101.759 7.59348 101.467 9.50089 100.882 12.7803C100.365 15.9258 100.061 17.7886 99.9714 18.3687C99.1393 24.102 97.9923 28.6419 96.5305 31.9882C95.0687 35.3346 93.1234 37.0077 90.6945 37.0077C89.5476 37.0077 88.6143 36.6508 87.8946 35.9369C87.175 35.2453 86.8151 34.3307 86.8151 33.1929C86.8151 32.1444 87.0513 31.0736 87.5235 29.9804C88.0183 28.8873 88.9179 27.6268 90.2223 26.1991C91.5491 24.7936 93.4157 23.1762 95.8221 21.3469L95.9233 20.5772C96.0807 19.7518 96.2606 18.5694 96.463 17.0301C96.0133 18.6364 95.3836 19.8634 94.5739 20.7111C93.7643 21.5365 92.9097 21.9492 92.0102 21.9492C90.9981 21.9492 90.166 21.4919 89.5138 20.5772C88.8841 19.6403 88.5693 18.4802 88.5693 17.0971C88.5693 15.4239 88.6817 13.8957 88.9066 12.5126C89.1315 11.1071 89.5026 9.62358 90.0199 8.06196C90.2447 7.3927 90.5596 6.91306 90.9644 6.62304C91.3692 6.33303 92.0102 6.18802 92.8872 6.18802C93.382 6.18802 93.7193 6.2661 93.8993 6.42226C94.1017 6.57842 94.2029 6.81267 94.2029 7.12499C94.2029 7.30346 94.0792 7.9058 93.8318 8.93201C93.6069 9.75744 93.427 10.5048 93.292 11.1741C93.1121 12.0887 92.9547 12.9699 92.8198 13.8177C92.6848 14.6431 92.6174 15.3235 92.6174 15.8589C92.6174 16.7067 92.8535 17.1305 93.3258 17.1305C93.6631 17.1305 94.0792 16.7959 94.5739 16.1266C95.0912 15.4574 95.6309 14.4423 96.1932 13.0815C96.7779 11.7206 97.3401 10.0475 97.8799 8.06196C98.0598 7.3927 98.3297 6.91306 98.6895 6.62304C99.0718 6.33303 99.634 6.18802 100.376 6.18802ZM91.0656 33.7618C91.6278 33.7618 92.2575 33.1148 92.9547 31.8209C93.6519 30.527 94.349 28.3742 95.0462 25.3625C93.3145 26.8126 92.0551 28.1288 91.268 29.3112C90.5034 30.5158 90.1211 31.5644 90.1211 32.4567C90.1211 32.836 90.1885 33.1483 90.3235 33.3937C90.4809 33.6391 90.7283 33.7618 91.0656 33.7618Z" fill="#4E1C4E"/>
<path d="M76.5361 21.9508C75.1417 21.9508 74.0285 21.4488 73.1964 20.4449C72.3643 19.441 71.9482 18.1248 71.9482 16.4963C71.9482 14.7116 72.3643 13.0272 73.1964 11.4433C74.0285 9.83708 75.1305 8.55432 76.5023 7.59503C77.8967 6.61344 79.3697 6.12265 80.9215 6.12265C81.4162 6.12265 81.7423 6.22304 81.8998 6.42382C82.0797 6.60229 82.2259 6.93692 82.3383 7.42772C82.8106 7.33848 83.3054 7.29387 83.8226 7.29387C84.9246 7.29387 85.4756 7.68427 85.4756 8.46508C85.4756 8.93357 85.3069 10.049 84.9696 11.8114C84.4523 14.3769 84.1937 16.1616 84.1937 17.1655C84.1937 17.5002 84.2724 17.7679 84.4298 17.9687C84.6097 18.1694 84.8346 18.2698 85.1045 18.2698C85.5318 18.2698 86.049 18.0021 86.6563 17.4667C87.2635 16.909 88.0843 16.0166 89.1188 14.7896C89.3887 14.4773 89.6923 14.3212 90.0297 14.3212C90.322 14.3212 90.5469 14.455 90.7043 14.7227C90.8842 14.9904 90.9742 15.3585 90.9742 15.827C90.9742 16.7194 90.7606 17.4109 90.3333 17.9017C89.4112 19.0395 88.4329 19.9988 87.3984 20.7796C86.3639 21.5604 85.3631 21.9508 84.3961 21.9508C83.6539 21.9508 82.968 21.7054 82.3383 21.2146C81.7311 20.7015 81.2701 20.0099 80.9552 19.1399C79.7858 21.0138 78.3127 21.9508 76.5361 21.9508ZM77.7505 18.571C78.2453 18.571 78.7175 18.281 79.1673 17.701C79.6171 17.1209 79.9432 16.3513 80.1456 15.392L81.3938 9.23474C80.4492 9.25705 79.5721 9.61399 78.7625 10.3056C77.9754 10.9748 77.3457 11.8672 76.8734 12.9826C76.4011 14.0981 76.165 15.2804 76.165 16.5297C76.165 17.2213 76.2999 17.7344 76.5698 18.069C76.8622 18.4037 77.2557 18.571 77.7505 18.571Z" fill="#4E1C4E"/>
<path d="M73.8214 14.3196C74.1138 14.3196 74.3387 14.4535 74.4961 14.7212C74.676 14.9889 74.766 15.357 74.766 15.8255C74.766 16.7178 74.5523 17.4094 74.125 17.9002C73.158 19.0826 72.1122 20.053 70.9878 20.8115C69.8858 21.57 68.6264 21.9493 67.2096 21.9493C66.0176 21.9493 65.0506 21.5254 64.3084 20.6777C63.0265 21.5031 61.6884 21.927 60.2941 21.9493C60.0017 26.2549 59.3383 29.8466 58.3038 32.7245C57.2693 35.6246 55.7512 37.0747 53.7497 37.0747C52.5353 37.0747 51.6357 36.6397 51.051 35.7696C50.4663 34.8996 50.1739 33.6949 50.1739 32.1556C50.1739 29.9693 50.6799 27.415 51.6919 24.4925C52.7039 21.5923 54.2669 18.391 56.3809 14.8885C56.3809 11.6314 56.3585 9.36707 56.3135 8.09547C56.291 7.44851 56.5496 6.9354 57.0894 6.55615C57.6291 6.1769 58.3038 5.98727 59.1134 5.98727C59.5857 5.98727 59.923 6.08767 60.1254 6.28844C60.3503 6.46692 60.474 6.83501 60.4965 7.39273C60.4965 7.95046 60.5077 8.36317 60.5302 8.63088C61.2499 7.73852 61.9583 7.10272 62.6555 6.72347C63.3526 6.32191 64.0948 6.12113 64.8819 6.12113C66.1413 6.12113 67.1646 6.62308 67.9517 7.62698C68.7613 8.63088 69.1661 9.9471 69.1661 11.5756C69.1661 12.758 68.975 13.9069 68.5926 15.0224C68.2103 16.1378 67.6818 17.1529 67.0071 18.0675C67.4794 18.2014 67.873 18.2683 68.1878 18.2683C68.93 18.2683 69.6384 18.0006 70.3131 17.4652C70.9878 16.9298 71.8536 16.0374 72.9106 14.7881C73.1805 14.4758 73.4841 14.3196 73.8214 14.3196ZM60.4628 18.7368C61.2724 18.5583 62.0145 18.1233 62.6892 17.4317C63.3864 16.7178 63.9374 15.8478 64.3422 14.8216C64.747 13.7731 64.9494 12.6799 64.9494 11.5422C64.9494 10.8729 64.8144 10.371 64.5446 10.0363C64.2747 9.67939 63.9149 9.50092 63.4651 9.50092C62.6555 9.50092 61.6772 10.3487 60.5302 12.0441C60.5077 13.0257 60.4965 14.4646 60.4965 16.3609C60.4965 17.3871 60.4852 18.1791 60.4628 18.7368ZM54.0196 33.7953C54.6268 33.7953 55.1328 32.4791 55.5376 29.8466C55.9424 27.2365 56.201 23.9794 56.3135 20.0753C55.3464 22.3062 54.5818 24.4367 54.0196 26.4668C53.4573 28.4969 53.1762 30.2036 53.1762 31.5867C53.1762 32.3006 53.2662 32.8472 53.4461 33.2264C53.6035 33.6057 53.7947 33.7953 54.0196 33.7953Z" fill="#4E1C4E"/>
<path d="M41.1302 21.9492C40.2756 21.9492 39.6684 21.5031 39.3086 20.6107C38.9712 19.7184 38.8026 18.2906 38.8026 16.3274C38.8026 13.4272 39.2186 10.6721 40.0507 8.06196C40.2531 7.41501 40.5792 6.94652 41.029 6.65651C41.5013 6.34418 42.1535 6.18802 42.9856 6.18802C43.4354 6.18802 43.7502 6.24379 43.9301 6.35533C44.11 6.46688 44.2 6.67881 44.2 6.99114C44.2 7.34808 44.0313 8.1512 43.694 9.4005C43.4691 10.2929 43.2892 11.0737 43.1542 11.7429C43.0193 12.4122 42.9069 13.2376 42.8169 14.2192C43.559 12.3006 44.3911 10.739 45.3132 9.53435C46.2353 8.32967 47.1348 7.47078 48.0119 6.95767C48.9115 6.44457 49.7324 6.18802 50.4745 6.18802C51.9363 6.18802 52.6672 6.91306 52.6672 8.36313C52.6672 9.23318 52.4198 10.806 51.9251 13.0815C51.4978 15.0223 51.2841 16.3051 51.2841 16.9297C51.2841 17.8221 51.6102 18.2683 52.2624 18.2683C52.7122 18.2683 53.2407 18.0006 53.8479 17.4652C54.4776 16.9074 55.3097 16.0151 56.3442 14.7881C56.6141 14.4758 56.9177 14.3196 57.255 14.3196C57.5474 14.3196 57.7723 14.4535 57.9297 14.7212C58.1096 14.9889 58.1996 15.357 58.1996 15.8255C58.1996 16.7178 57.9859 17.4094 57.5586 17.9002C56.5916 19.0825 55.5459 20.053 54.4214 20.8115C53.3194 21.57 52.06 21.9492 50.6432 21.9492C49.4962 21.9492 48.6304 21.6258 48.0457 20.9788C47.4609 20.3095 47.1686 19.3503 47.1686 18.101C47.1686 17.4763 47.326 16.3609 47.6409 14.7546C47.9332 13.3492 48.0794 12.3787 48.0794 11.8433C48.0794 11.4864 47.9557 11.3079 47.7083 11.3079C47.416 11.3079 46.9999 11.6872 46.4602 12.4457C45.9429 13.1819 45.4032 14.1634 44.8409 15.3904C44.3012 16.6174 43.8627 17.9113 43.5253 19.2722C43.2779 20.3207 42.9856 21.0346 42.6482 21.4138C42.3334 21.7708 41.8274 21.9492 41.1302 21.9492Z" fill="#4E1C4E"/>
<path d="M40.2001 14.3196C40.4924 14.3196 40.7173 14.4535 40.8747 14.7212C41.0546 14.9889 41.1446 15.357 41.1446 15.8255C41.1446 16.7178 40.931 17.4094 40.5037 17.9002C39.6716 18.9041 38.4909 19.8299 36.9616 20.6776C35.4548 21.5254 33.8356 21.9492 32.1039 21.9492C29.7425 21.9492 27.9096 21.3134 26.6053 20.0418C25.3009 18.7702 24.6487 17.0301 24.6487 14.8216C24.6487 13.2822 24.9748 11.8545 25.627 10.5382C26.2792 9.19972 27.1787 8.14004 28.3257 7.35923C29.4951 6.57842 30.8108 6.18802 32.2726 6.18802C33.5769 6.18802 34.6227 6.57842 35.4098 7.35923C36.197 8.11774 36.5905 9.1551 36.5905 10.4713C36.5905 12.0106 36.0283 13.338 34.9038 14.4535C33.8018 15.5466 31.924 16.4166 29.2702 17.0636C29.8325 18.0898 30.9007 18.6029 32.475 18.6029C33.487 18.6029 34.6339 18.2571 35.9158 17.5655C37.2202 16.8517 38.3447 15.9258 39.2892 14.7881C39.5591 14.4758 39.8627 14.3196 40.2001 14.3196ZM31.6991 9.46742C30.867 9.46742 30.1586 9.94706 29.5738 10.9063C29.0116 11.8656 28.7305 13.0257 28.7305 14.3865V14.4535C30.0574 14.1411 31.1031 13.6726 31.8678 13.048C32.6324 12.4233 33.0147 11.6983 33.0147 10.8729C33.0147 10.449 32.891 10.1144 32.6436 9.86898C32.4187 9.60128 32.1039 9.46742 31.6991 9.46742Z" fill="#4E1C4E"/>
<path fill-rule="evenodd" clip-rule="evenodd" d="M92.8195 13.8186C92.9545 12.9708 93.1119 12.0896 93.2918 11.175C93.4267 10.5057 93.6066 9.75837 93.8315 8.93294C94.0789 7.90673 94.2026 7.30439 94.2026 7.12592C94.2026 6.81359 94.1014 6.57935 93.899 6.42319C93.7191 6.26703 93.3818 6.18895 92.887 6.18895C92.0099 6.18895 91.369 6.33395 90.9642 6.62397C90.5593 6.91398 90.2445 7.39362 90.0196 8.06289C89.5023 9.62451 89.1313 11.1081 88.9064 12.5135C88.7607 13.4093 88.6622 14.366 88.6109 15.3835C88.5243 15.4837 88.4395 15.5812 88.3564 15.676C88.4029 14.5371 88.5068 13.4703 88.6684 12.476C88.8956 11.0562 89.27 9.5602 89.7907 7.98828C90.025 7.29095 90.3633 6.75961 90.8231 6.4302C91.2898 6.0958 91.9932 5.94992 92.887 5.94992C93.3843 5.94992 93.8001 6.02389 94.0523 6.23864C94.323 6.45033 94.4436 6.76084 94.4436 7.12592C94.4436 7.24404 94.4065 7.46452 94.346 7.75924C94.2833 8.06425 94.1898 8.47437 94.0659 8.98853L94.0643 8.99533C93.8404 9.81685 93.6617 10.5589 93.5281 11.2219C93.3488 12.1335 93.1919 13.0115 93.0575 13.8559C92.9236 14.6748 92.8581 15.3423 92.8581 15.8598C92.8581 16.2695 92.9165 16.5389 93.0051 16.6979C93.0474 16.7739 93.0937 16.8196 93.1401 16.8473C93.186 16.8748 93.245 16.8924 93.3255 16.8924C93.4147 16.8924 93.5501 16.8466 93.7388 16.6948C93.9245 16.5455 94.1382 16.3125 94.3794 15.9862L94.3824 15.9821C94.8805 15.3376 95.4108 14.3452 95.97 12.9917L95.9712 12.9887C96.5502 11.6412 97.109 9.97944 97.6469 8.00106C97.8336 7.3065 98.1226 6.77267 98.5373 6.43846L98.5428 6.43402C98.9845 6.09897 99.6079 5.94992 100.376 5.94992C100.898 5.94992 101.322 6.01438 101.589 6.19085C101.878 6.38188 102 6.69309 102 7.05899C102 7.34852 101.923 7.97875 101.778 8.92704C101.631 9.88318 101.412 11.1815 101.12 12.8211C100.603 15.9649 100.299 17.8255 100.209 18.4051C99.3758 24.148 98.225 28.7107 96.7513 32.0842C95.2737 35.4667 93.2651 37.2477 90.6943 37.2477C89.493 37.2477 88.4959 36.8719 87.7254 36.1082C86.9528 35.3651 86.5739 34.3854 86.5739 33.1938C86.5739 32.1089 86.8184 31.0061 87.3018 29.8872L87.3034 29.8834C87.8129 28.7578 88.7311 27.476 90.0435 26.0395L90.0461 26.0366C91.3708 24.6335 93.2223 23.0273 95.5958 21.2186L95.6859 20.5337C95.7582 20.1544 95.8359 19.6983 95.9181 19.165C95.5827 19.8391 95.1935 20.4106 94.7486 20.8764L94.7464 20.8787C93.9052 21.7363 92.992 22.1892 92.0099 22.1892C90.9097 22.1892 90.0081 21.6857 89.3169 20.7162L89.313 20.7108C89.0869 20.3744 88.9004 20.0117 88.7527 19.6234C88.8159 19.563 88.8789 19.5019 88.9416 19.44C89.0887 19.8503 89.2794 20.2297 89.5136 20.5782C90.1658 21.4928 90.9979 21.9502 92.0099 21.9502C92.9095 21.9502 93.7641 21.5375 94.5737 20.712C95.1603 20.0978 95.6525 19.2844 96.0502 18.2719C96.2014 17.8871 96.3389 17.4734 96.4628 17.0311C96.4014 17.4977 96.3421 17.9316 96.2849 18.3327C96.1534 19.2545 96.0327 20.003 95.923 20.5782L95.8218 21.3478C93.4155 23.1772 91.5489 24.7945 90.222 26.2C88.9176 27.6278 88.018 28.8882 87.5233 29.9814C87.051 31.0745 86.8149 32.1453 86.8149 33.1938C86.8149 34.3316 87.1747 35.2463 87.8944 35.9378C88.614 36.6517 89.5473 37.0087 90.6943 37.0087C93.1231 37.0087 95.0685 35.3355 96.5303 31.9892C97.9921 28.6428 99.139 24.103 99.9711 18.3696C100.061 17.7896 100.365 15.9268 100.882 12.7812C101.467 9.50181 101.759 7.59441 101.759 7.05899C101.759 6.74667 101.658 6.52358 101.455 6.38972C101.253 6.25587 100.893 6.18895 100.376 6.18895C99.6338 6.18895 99.0716 6.33395 98.6892 6.62397C98.3294 6.91398 98.0595 7.39362 97.8796 8.06289C97.3399 10.0484 96.7776 11.7215 96.1929 13.0824C95.6307 14.4432 95.0909 15.4583 94.5737 16.1275C94.0789 16.7968 93.6629 17.1314 93.3255 17.1314C92.8533 17.1314 92.6171 16.7076 92.6171 15.8598C92.6171 15.3244 92.6846 14.644 92.8195 13.8186ZM91.786 33.1115C92.0787 32.8107 92.3981 32.3473 92.7419 31.7092C93.3679 30.5475 94.0026 28.6577 94.6418 26.0244C93.208 27.2767 92.1536 28.4158 91.4703 29.4417C90.7177 30.6279 90.3618 31.6303 90.3618 32.4576C90.3618 32.8063 90.4233 33.0737 90.5308 33.2729C90.6368 33.4338 90.7995 33.5237 91.0654 33.5237C91.2506 33.5237 91.4897 33.4159 91.786 33.1115ZM90.3232 33.3946C90.1883 33.1492 90.1208 32.8369 90.1208 32.4576C90.1208 31.5653 90.5031 30.5168 91.2678 29.3121C92.0074 28.2011 93.164 26.9719 94.7375 25.6245C94.8386 25.538 94.9414 25.451 95.046 25.3634C95.0154 25.4956 94.9848 25.6261 94.9542 25.7549C94.2876 28.5624 93.621 30.5847 92.9545 31.8218C92.2573 33.1158 91.6276 33.7627 91.0654 33.7627C90.728 33.7627 90.4806 33.64 90.3232 33.3946Z" fill="#4E1C4E"/>
<path fill-rule="evenodd" clip-rule="evenodd" d="M71.9647 15.8668C72.0513 14.3138 72.4616 12.8388 73.1954 11.4419C74.0275 9.83568 75.1295 8.55292 76.5014 7.59364C77.8957 6.61205 79.3687 6.12126 80.9205 6.12126C81.4153 6.12126 81.7414 6.22165 81.8988 6.42243C82.0787 6.6009 82.2249 6.93553 82.3373 7.42633C82.8096 7.33709 83.3044 7.29247 83.8216 7.29247C84.9236 7.29247 85.4746 7.68288 85.4746 8.46369C85.4746 8.93217 85.3059 10.0476 84.9686 11.81C84.4513 14.3755 84.1927 16.1602 84.1927 17.1642C84.1927 17.4988 84.2714 17.7665 84.4288 17.9673C84.6088 18.1681 84.8336 18.2684 85.1035 18.2684C85.5308 18.2684 86.0481 18.0007 86.6553 17.4653C87.1597 17.002 87.8115 16.3078 88.6108 15.3827C88.6175 15.2501 88.6249 15.1186 88.6332 14.9881C87.7427 16.0299 87.0301 16.7951 86.4935 17.2882C85.8964 17.8143 85.4374 18.0294 85.1035 18.0294C84.9054 18.0294 84.7475 17.9603 84.6143 17.8144C84.5017 17.6674 84.4337 17.4583 84.4337 17.1642C84.4337 16.187 84.6873 14.4239 85.2049 11.8569L85.2053 11.8546C85.5412 10.0999 85.7156 8.9596 85.7156 8.46369C85.7156 8.01046 85.5512 7.63859 85.2014 7.39077C84.8666 7.15354 84.394 7.05345 83.8216 7.05345C83.3713 7.05345 82.9363 7.08638 82.5168 7.15261C82.41 6.76559 82.2698 6.45844 82.0795 6.26377C81.8458 5.97786 81.4193 5.88223 80.9205 5.88223C79.3137 5.88223 77.7927 6.39147 76.362 7.39863M89.0355 19.6831C88.5522 20.1538 88.0549 20.5823 87.5433 20.9684C86.4812 21.7701 85.4304 22.1884 84.3951 22.1884C83.5946 22.1884 82.857 21.9222 82.1885 21.4012L82.181 21.3953C81.6435 20.9411 81.2185 20.3584 80.9027 19.6536C79.7415 21.3231 78.2854 22.1884 76.5351 22.1884C75.074 22.1884 73.8904 21.6584 73.0093 20.5954C72.7798 20.3184 72.581 20.0196 72.4127 19.6995C72.4744 19.6444 72.5358 19.5885 72.5969 19.532C72.7642 19.8601 72.9637 20.1639 73.1954 20.4436C74.0275 21.4475 75.1408 21.9494 76.5351 21.9494C78.2305 21.9494 79.6494 21.0962 80.7918 19.3898C80.8466 19.308 80.9007 19.2242 80.9542 19.1385C80.9885 19.2332 81.0245 19.3258 81.0623 19.4163C81.3712 20.157 81.7962 20.756 82.3373 21.2132C82.967 21.704 83.653 21.9494 84.3951 21.9494C85.3621 21.9494 86.3629 21.559 87.3974 20.7782C87.9268 20.3786 88.4415 19.9323 88.9415 19.4393C88.971 19.5218 89.0024 19.6031 89.0355 19.6831ZM71.9647 15.8668C71.8788 15.9608 71.7944 16.0517 71.7117 16.1397C71.7636 14.4477 72.1871 12.8441 72.9816 11.3316M78.9183 10.4857C78.1643 11.1268 77.5549 11.9866 77.0946 13.0738C76.6351 14.159 76.405 15.3098 76.405 16.5283C76.405 17.1937 76.5356 17.6413 76.7541 17.9148C76.9951 18.1886 77.318 18.3306 77.7495 18.3306C78.1383 18.3306 78.548 18.1049 78.9754 17.5538C79.3967 17.0104 79.7112 16.2775 79.9086 15.3425C79.9085 15.3428 79.9087 15.3422 79.9086 15.3425L81.0946 9.49206C80.3266 9.57434 79.602 9.90164 78.9183 10.4857ZM81.1442 9.24707C81.2265 9.23989 81.3094 9.23531 81.3928 9.23335L80.1446 15.3906C79.9422 16.3499 79.6161 17.1195 79.1663 17.6996C78.7166 18.2796 78.2443 18.5696 77.7495 18.5696C77.2547 18.5696 76.8612 18.4023 76.5688 18.0677C76.2989 17.733 76.164 17.2199 76.164 16.5283C76.164 15.279 76.4001 14.0967 76.8724 12.9812C77.3447 11.8658 77.9744 10.9734 78.7615 10.3042C79.4997 9.67365 80.2939 9.32128 81.1442 9.24707Z" fill="#4E1C4E"/>
<path fill-rule="evenodd" clip-rule="evenodd" d="M56.3818 14.7476C56.3812 11.5665 56.3587 9.34945 56.3144 8.09639C56.2919 7.44943 56.5505 6.93633 57.0903 6.55708C57.63 6.17782 58.3047 5.9882 59.1143 5.9882C59.5866 5.9882 59.9239 6.08859 60.1263 6.28937C60.3512 6.46784 60.4749 6.83594 60.4974 7.39366C60.4974 7.74675 60.5019 8.04172 60.5109 8.27857C60.5161 8.41583 60.5229 8.53358 60.5311 8.6318C60.6061 8.53889 60.6809 8.44876 60.7556 8.3614C61.3982 7.60983 62.0318 7.06416 62.6564 6.72439C63.3535 6.32283 64.0957 6.12205 64.8828 6.12205C66.1422 6.12205 67.1655 6.624 67.9526 7.6279C68.7622 8.6318 69.167 9.94802 69.167 11.5766C69.167 12.7589 68.9759 13.9079 68.5935 15.0233C68.2398 16.0553 67.7609 17.0014 67.1569 17.8616C67.1081 17.9311 67.0585 18.0001 67.0081 18.0685C67.0937 18.0927 67.1768 18.1148 67.2573 18.1347C67.6205 18.2244 67.931 18.2692 68.1887 18.2692C68.9309 18.2692 69.6393 18.0015 70.314 17.4661C70.7752 17.1001 71.3258 16.5673 71.9656 15.8676C71.9729 15.7373 71.9825 15.6075 71.9943 15.4782C71.2698 16.2866 70.6599 16.8855 70.1635 17.2795C69.5242 17.7868 68.8675 18.0302 68.1887 18.0302C67.9767 18.0302 67.7166 17.9962 67.4061 17.9244C67.9992 17.065 68.471 16.1233 68.8217 15.1002C69.2125 13.9599 69.408 12.785 69.408 11.5766C69.408 9.90923 68.9932 8.5363 68.1419 7.47997C67.3102 6.41986 66.2176 5.88303 64.8828 5.88303C64.0531 5.88303 63.2702 6.095 62.5379 6.51622C61.9385 6.8428 61.3411 7.34357 60.7441 8.00982C60.7403 7.83054 60.7383 7.62527 60.7383 7.39366H60.7385L60.7382 7.3841C60.7155 6.82277 60.5928 6.36172 60.2873 6.1112C60.0177 5.85073 59.6053 5.74918 59.1143 5.74918C58.2661 5.74918 57.5398 5.94828 56.951 6.36203C56.3462 6.78701 56.0482 7.37596 56.0736 8.10462L56.0736 8.10477C56.1181 9.36309 56.1406 11.6016 56.1409 14.8234C56.006 15.0473 55.8733 15.27 55.7429 15.4915C55.9092 15.301 56.0816 15.1003 56.2601 14.8894C56.2737 14.8735 56.2872 14.8574 56.3008 14.8413C56.3155 14.824 56.3302 14.8065 56.345 14.7891C56.3572 14.7749 56.3695 14.7611 56.3818 14.7476ZM52.8383 21.6062C52.738 21.6398 52.6368 21.671 52.5345 21.6997C52.1281 22.6317 51.7716 23.5369 51.4651 24.4152L51.4649 24.4158C50.4475 27.3537 49.9338 29.9354 49.9338 32.1565C49.9338 33.722 50.2306 34.9794 50.8514 35.9031C51.4882 36.8506 52.4699 37.3146 53.7506 37.3146C55.9071 37.3146 57.4852 35.7394 58.5318 32.8051C59.5586 29.9487 60.2197 26.406 60.5204 22.1824C61.8213 22.1228 63.0712 21.7226 64.2675 20.9879C65.0388 21.7892 66.0259 22.1892 67.2105 22.1892C68.673 22.1892 69.9805 21.7969 71.1249 21.0096C71.6743 20.6389 72.2045 20.2191 72.7157 19.7505C72.6748 19.6792 72.6355 19.6066 72.5979 19.5328C72.0807 20.0111 71.5443 20.4376 70.9887 20.8124C69.8867 21.5709 68.6273 21.9502 67.2105 21.9502C66.0185 21.9502 65.0515 21.5263 64.3093 20.6786C63.0274 21.504 61.6893 21.9279 60.295 21.9502C60.0026 26.2558 59.3392 29.8475 58.3047 32.7254C57.2702 35.6255 55.7521 37.0756 53.7506 37.0756C52.5362 37.0756 51.6366 36.6406 51.0519 35.7705C50.4672 34.9005 50.1748 33.6958 50.1748 32.1565C50.1748 29.9702 50.6808 27.4159 51.6928 24.4934C52.0178 23.5621 52.3996 22.5997 52.8383 21.6062ZM62.5169 17.2664L62.517 17.2663C63.1895 16.5778 63.724 15.7358 64.1184 14.7362C64.5123 13.7156 64.7093 12.6517 64.7093 11.5431C64.7093 10.8994 64.5785 10.4608 64.3573 10.1866L64.3526 10.1807L64.3527 10.1807C64.1283 9.88392 63.8399 9.74087 63.466 9.74087C63.1458 9.74087 62.7538 9.91016 62.2836 10.3177C61.8275 10.7129 61.3228 11.3106 60.7705 12.1205C60.7491 13.0973 60.7383 14.5107 60.7383 16.3618C60.7383 17.2055 60.7308 17.893 60.7155 18.4234C61.3566 18.2227 61.957 17.8404 62.5169 17.2664ZM60.7072 18.6757C60.6267 18.699 60.5455 18.7197 60.4637 18.7377C60.4668 18.6598 60.4697 18.5774 60.4724 18.4904C60.4891 17.9543 60.4974 17.2447 60.4974 16.3618C60.4974 14.4656 60.5086 13.0266 60.5311 12.0451C61.6781 10.3496 62.6564 9.50185 63.466 9.50185C63.9158 9.50185 64.2756 9.68032 64.5455 10.0373C64.8153 10.3719 64.9503 10.8738 64.9503 11.5431C64.9503 12.6809 64.7479 13.774 64.3431 14.8225C63.9383 15.8487 63.3873 16.7188 62.6901 17.4327C62.0836 18.0543 61.4227 18.4686 60.7072 18.6757ZM55.3003 29.8115L55.3003 29.8112C55.6573 27.5097 55.9006 24.6982 56.0295 21.3748C55.302 23.1619 54.7099 24.8806 54.2528 26.5311C53.6937 28.5501 53.4181 30.2339 53.4181 31.5876C53.4181 32.2878 53.5073 32.7931 53.665 33.1256L53.6701 33.1362L53.6698 33.1363C53.8228 33.5049 53.9573 33.5572 54.0205 33.5572C54.0746 33.5572 54.1587 33.5301 54.2723 33.3958C54.3867 33.2606 54.508 33.0418 54.6302 32.7239C54.8739 32.09 55.0986 31.123 55.3003 29.8115ZM56.0544 20.6852C55.2093 22.6956 54.5313 24.6231 54.0205 26.4677C53.4582 28.4979 53.1771 30.2045 53.1771 31.5876C53.1771 32.3015 53.2671 32.8481 53.447 33.2273C53.6044 33.6066 53.7956 33.7962 54.0205 33.7962C54.6277 33.7962 55.1337 32.48 55.5385 29.8475C55.9203 27.386 56.172 24.3492 56.2937 20.7369C56.3011 20.5188 56.308 20.2986 56.3144 20.0763C56.226 20.2801 56.1394 20.4831 56.0544 20.6852Z" fill="#4E1C4E"/>
<path fill-rule="evenodd" clip-rule="evenodd" d="M39.0828 20.6956L39.0828 20.6956C38.9585 20.3668 38.8572 19.9725 38.778 19.5138C38.8514 19.4587 38.9236 19.4034 38.9946 19.3477C39.0744 19.8479 39.179 20.2692 39.3084 20.6116C39.6683 21.504 40.2755 21.9502 41.1301 21.9502C41.8272 21.9502 42.3332 21.7717 42.6481 21.4148C42.9854 21.0355 43.2778 20.3216 43.5252 19.2731C43.8625 17.9123 44.3011 16.6183 44.8408 15.3914C45.403 14.1644 45.9428 13.1828 46.46 12.4466C46.9998 11.6881 47.4158 11.3088 47.7082 11.3088C47.9556 11.3088 48.0793 11.4873 48.0793 11.8442C48.0793 12.3797 47.9331 13.3501 47.6407 14.7556C47.3259 16.3618 47.1685 17.4772 47.1685 18.1019C47.1685 19.3512 47.4608 20.3105 48.0455 20.9797C48.6303 21.6267 49.4961 21.9502 50.643 21.9502C51.4221 21.9502 52.1536 21.8355 52.8374 21.6062C52.7944 21.7036 52.7519 21.8007 52.71 21.8975C52.0601 22.0921 51.3707 22.1892 50.643 22.1892C49.45 22.1892 48.5096 21.8513 47.8661 21.1393L47.8634 21.1363C47.2277 20.4086 46.9275 19.3853 46.9275 18.1019C46.9275 17.4512 47.0896 16.3146 47.4042 14.7099L47.4047 14.7072C47.6975 13.2997 47.8383 12.3519 47.8383 11.8442C47.8383 11.6857 47.8095 11.6092 47.7879 11.5781C47.7792 11.5655 47.772 11.5605 47.7654 11.5574C47.7577 11.5537 47.7408 11.5479 47.7082 11.5479C47.6581 11.5479 47.5397 11.5872 47.3399 11.7693C47.1501 11.9423 46.9226 12.2111 46.6572 12.5841C46.1517 13.3036 45.6193 14.2701 45.061 15.4885C44.5274 16.7017 44.0935 17.9818 43.7594 19.329C43.5111 20.3811 43.2085 21.146 42.8288 21.5729C42.4504 22.0013 41.8638 22.1892 41.1301 22.1892C40.6582 22.1892 40.2407 22.0651 39.8903 21.8076C39.542 21.5516 39.2766 21.1763 39.0847 20.7004L39.0828 20.6956ZM56.3808 14.4153C56.3809 14.5248 56.381 14.6356 56.381 14.7475C56.3686 14.761 56.3563 14.7749 56.3441 14.789C55.3096 16.016 54.4775 16.9084 53.8478 17.4661C53.2406 18.0015 52.7121 18.2692 52.2623 18.2692C51.6101 18.2692 51.284 17.823 51.284 16.9307C51.284 16.306 51.4976 15.0233 51.9249 13.0824C52.4197 10.8069 52.6671 9.23411 52.6671 8.36406C52.6671 6.91398 51.9362 6.18895 50.4744 6.18895C49.7322 6.18895 48.9114 6.4455 48.0118 6.9586C47.1347 7.47171 46.2351 8.3306 45.3131 9.53528C44.5234 10.5669 43.7998 11.8604 43.1421 13.4156C43.0318 13.6764 42.9234 13.9446 42.8168 14.2201C42.8446 13.9167 42.8745 13.6281 42.9067 13.3545C42.9784 12.7431 43.0609 12.2062 43.1541 11.7439C43.289 11.0746 43.469 10.2938 43.6938 9.40142C44.0312 8.15213 44.1999 7.34901 44.1999 6.99206C44.1999 6.67974 44.1099 6.46781 43.93 6.35626C43.7501 6.24472 43.4352 6.18895 42.9854 6.18895C42.1533 6.18895 41.5011 6.34511 41.0289 6.65743C40.5791 6.94745 40.253 7.41593 40.0506 8.06289C39.3153 10.3692 38.9049 12.7887 38.8193 15.3214C38.7377 15.4086 38.6548 15.4943 38.5707 15.5786C38.6366 12.9292 39.0529 10.3998 39.8207 7.99134C39.8207 7.99117 39.8208 7.99099 39.8208 7.99082L40.0505 8.06288L39.8205 7.99204C39.8205 7.99181 39.8206 7.99158 39.8207 7.99134C40.035 7.30683 40.3885 6.78567 40.8964 6.45778C41.4226 6.11026 42.1274 5.94992 42.9854 5.94992C43.44 5.94992 43.8157 6.00351 44.0577 6.15357C44.3383 6.32751 44.4408 6.64025 44.4408 6.99206C44.4408 7.19735 44.3938 7.50848 44.3092 7.91086C44.2237 8.31813 44.0961 8.83535 43.9271 9.46129C43.7031 10.3503 43.5243 11.1267 43.3904 11.7907C43.3425 12.0283 43.2974 12.2864 43.255 12.5653C43.828 11.3271 44.4496 10.2681 45.1212 9.39074C46.0536 8.17246 46.9754 7.28741 47.8894 6.75272L47.8917 6.75138C48.814 6.22533 49.6766 5.94992 50.4744 5.94992C51.2424 5.94992 51.8627 6.14055 52.2893 6.56371C52.7159 6.98686 52.908 7.60218 52.908 8.36406C52.908 9.26306 52.6548 10.8594 52.1605 13.1328L52.1603 13.1334C51.7319 15.0797 51.525 16.3365 51.525 16.9307C51.525 17.3551 51.6038 17.6303 51.7236 17.7943C51.8331 17.944 51.9981 18.0302 52.2623 18.0302C52.621 18.0302 53.0926 17.8121 53.6874 17.2877C54.3038 16.7417 55.1269 15.8601 56.1593 14.6357L56.1611 14.6335C56.2311 14.5525 56.3044 14.4795 56.3808 14.4153Z" fill="#4E1C4E"/>
<path fill-rule="evenodd" clip-rule="evenodd" d="M32.4653 10.0313L32.4583 10.0229C32.2864 9.81836 32.0443 9.70737 31.6988 9.70737C30.9806 9.70737 30.3392 10.114 29.7809 11.0292C29.2777 11.8885 29.0055 12.925 28.9742 14.1473C30.134 13.8429 31.0434 13.4125 31.7143 12.8644C32.4351 12.2756 32.7735 11.614 32.7735 10.8738C32.7735 10.4984 32.6656 10.2299 32.473 10.0389L32.4653 10.0313ZM28.9712 14.3952C28.8919 14.4155 28.8116 14.4352 28.7302 14.4544V14.3875C28.7302 14.3273 28.7308 14.2676 28.7319 14.2082C28.7556 12.9245 29.0362 11.8242 29.5736 10.9073C30.1583 9.94799 30.8667 9.46835 31.6988 9.46835C32.1036 9.46835 32.4185 9.6022 32.6434 9.86991C32.8908 10.1153 33.0145 10.4499 33.0145 10.8738C33.0145 11.6992 32.6321 12.4243 31.8675 13.0489C31.1498 13.6353 30.1843 14.084 28.9712 14.3952Z" fill="#4E1C4E"/>
<path d="M30.1401 23.0813C30.4638 23.0813 30.7128 23.2295 30.8871 23.5259C31.0863 23.8223 31.1859 24.2298 31.1859 24.7485C31.1859 25.7118 30.9493 26.4774 30.4762 27.0455C29.0819 28.7004 27.7249 29.8612 26.4053 30.5281C25.1105 31.195 23.5419 31.5284 21.6994 31.5284C20.4046 31.5284 19.2095 31.3679 18.1139 31.0468C17.0184 30.7257 15.6863 30.2441 14.1177 29.6019C12.7731 29.0338 11.578 28.5769 10.5322 28.2311C9.38688 29.466 8.35358 30.3305 7.43232 30.8245C6.51106 31.2938 5.54 31.5284 4.51915 31.5284C3.14971 31.5284 2.05416 31.2197 1.2325 30.6022C0.410832 29.96 0 29.1326 0 28.1199C0 27.3543 0.248989 26.6503 0.746967 26.0082C1.26984 25.366 1.99191 24.8597 2.91317 24.4892C3.83443 24.1187 4.90508 23.9334 6.12513 23.9334C6.8223 23.9334 7.34517 23.9458 7.69376 23.9705C12.5739 17.9439 16.981 11.5839 20.9151 4.89042C18.7738 4.51994 16.5951 4.33469 14.3791 4.33469C11.5157 4.33469 9.41178 4.66813 8.06724 5.33501C6.7476 5.97718 6.08778 7.0022 6.08778 8.41005C6.08778 8.82993 6.13758 9.18807 6.23717 9.48446C6.33677 9.78085 6.48616 10.1266 6.68535 10.5218C6.90944 10.9664 7.02149 11.2875 7.02149 11.4851C7.02149 11.9791 6.78495 12.399 6.31187 12.7447C5.86369 13.0658 5.34081 13.2264 4.74324 13.2264C4.12077 13.2264 3.61034 13.0411 3.21196 12.6706C2.73888 12.2508 2.35295 11.6827 2.05416 10.9664C1.78027 10.2254 1.64333 9.39801 1.64333 8.48415C1.64333 5.59435 2.85092 3.45788 5.26612 2.07473C7.68131 0.691575 10.8684 0 14.8273 0C16.7943 0 18.7987 0.111146 20.8404 0.333438C22.907 0.555729 24.8366 0.913866 26.6294 1.40785C27.3763 1.60544 27.8743 1.88948 28.1233 2.25997C28.3723 2.60576 28.4968 3.06269 28.4968 3.63077C28.4968 4.29764 28.3225 4.81633 27.9739 5.18681C27.6253 5.5573 27.1398 5.74254 26.5173 5.74254H26.2559C23.5668 10.0896 20.8404 14.2637 18.0766 18.265C15.8606 21.4512 14.3044 23.6124 13.4081 24.7485C14.8522 25.0696 16.1096 25.366 17.1802 25.6377C18.4999 25.9835 19.5581 26.2428 20.3548 26.4157C21.1765 26.5639 21.8861 26.638 22.4837 26.638C23.9278 26.638 25.1603 26.4034 26.1812 25.9341C27.2269 25.4401 28.2104 24.6621 29.1317 23.6C29.4305 23.2542 29.7666 23.0813 30.1401 23.0813Z" fill="#4E1C4E"/>
</svg>
