<svg width="38" height="27" viewBox="0 0 38 27" fill="none" xmlns="http://www.w3.org/2000/svg">
<path id="Union" fill-rule="evenodd" clip-rule="evenodd" d="M7.5 2.44784e-06C6.11929 2.44784e-06 5 1.11929 5 2.5C5 3.88071 6.11929 5 7.5 5L18.5856 5L1.25262 22.3329C0.503922 22.7648 0 23.5736 0 24.5C0 25.8807 1.11929 27 2.5 27L30.5 27C31.8807 27 33 25.8807 33 24.5C33 23.1193 31.8807 22 30.5 22H19.8285L36.9142 4.91425C37.1795 4.64898 37.3727 4.33892 37.4938 4.00841C37.8115 3.58915 38 3.06658 38 2.5C38 1.11929 36.8807 -1.20706e-07 35.5 0L7.5 2.44784e-06ZM12.7574 22L29.7574 5L25.6566 5L8.65663 22H12.7574Z" fill="#4E1C4E"/>
</svg>
